<svg xmlns="http://www.w3.org/2000/svg" viewBox="0 0 76.7 100"><path d="M36.8 96.4a3 3 0 0 1-3 2.7H19.6c-1.1 0-1.9-.5-1.9-1.5v-.3c0-2.3 4.5-3 6-6.7l10.1-31.3a38 38 0 0 1-9.1 1.2C12.1 60.5 0 54.6 0 40.1 0 16.4 24 0 42.8 0c10.4 0 22.4 3.6 22.4 12.5a9.7 9.7 0 0 1-9.6 9.5C43 22 46.8 5.8 36.6 5.8 29 5.8 19 14.8 19 32.6c0 7.1 3 17.1 13.3 17.1 2 0 5-.3 6-1l3.5-10.4a3 3 0 0 0 .2-1c0-2.5-3.6-4-3.6-6v-.4c0-.9 1-1.5 2.1-1.5h21.6c1.1 0 2 .6 2 1.5v.4c0 2.2-6.4 3.7-7.1 7.1L49.9 61a21 21 0 0 1 10.4-2.4c4.9 0 16.4 1.9 16.4 13.1A30.8 30.8 0 0 1 46.9 100c-4.9 0-7.6-1.3-10-3.6Zm9.5-.5c5.2 0 9-3.6 11.4-12.6a51.2 51.2 0 0 0 2-12.5c0-4.8-1.3-8.3-4.6-8.3a8.1 8.1 0 0 0-7.7 6.3l-5.3 16.4a15 15 0 0 0-.6 3.9c0 4.4 2.4 6.8 4.8 6.8Z" fill="#00ad41"/></svg>